# xmcd
#
# Track frame offsets:
#	150
#	873
#	15948
#	27470
#	29669
#	46579
#	63973
#	77616
#	79689
#	97711
#	108792
#	126363
#	144385
#	160281
#	185580
#	202604
#	217500
#	219042
#	236206
#	255601
#	275241
#	289070
#	301824
#	312927
#	330826
#	331504
#	332455
#
# Disc length: 4439 seconds
#
# Revision: 1
# Processed by: cddbd v1.5.2PL0 Copyright (c) Steve Scherf et al.
# Submitted via: audiograbber 1.83.01
#
DISCID=4c11551b
DTITLE=Country Hotdisc - Country Hotdisc 033A
DYEAR=2001
DGENRE=Country
TTITLE0=Intro - Intro
TTITLE1=My Turn To Cry - Steven Mcclinton
TTITLE2=Passion Hit Me - Lou Hobbs
TTITLE3=Soundbits For Radio Use - Jon Dean Foster
TTITLE4=Born Survivor -Jon Dean Foster -  
TTITLE5=Driving Tennessee - Left Hand Drive
TTITLE6=Don´t Play Faded Love - Gerry Ford
TTITLE7=Soundbits For Radio Use - Walter Egan Of Brooklyn Cowboys
TTITLE8=California - Brooklyn Cowboys
TTITLE9=Back In Memphis - Clint Miller
TTITLE10=The Thing You Love Is Killing Me - Dolly Warden
TTITLE11=Heaven Of Mine - Stewboss
TTITLE12=Gently Fade Away - Chris Shilds
TTITLE13=Diamond Days - Mike Sherherd
TTITLE14=Over The Years - Clark Steelman
TTITLE15=Wild Turkey Chasers - Tejay Holandes
TTITLE16=Soundbits For Radio Use - Dixon Devore
TTITLE17=It´s The Woman Behind The Man - Karen Dee
TTITLE18=Lost In The Fifties Tonight - Ronnie Milsap
TTITLE19=Angels Fly Too Close To The Ground -Willie Nelson -  
TTITLE20=I Wasen´t Born In Tennesse - Willie Nelson
TTITLE21=Room Full Of Roses - Chip Taylor
TTITLE22=Chrildren Go - Mickey Gilley
TTITLE23=Blue Highway - Ricky Skaggs
TTITLE24=Generic Radio Liners - Walter Egan Of Brooklyn Cowboys
TTITLE25=Generic Radio Liners - Walter Egan Of Brooklyn Cowboys
TTITLE26=Generic Radio Liners - Walter Egan Of Brooklyn Cowboys
EXTD=
EXTT0=
EXTT1=
EXTT2=
EXTT3=
EXTT4=
EXTT5=
EXTT6=
EXTT7=
EXTT8=
EXTT9=
EXTT10=
EXTT11=
EXTT12=
EXTT13=
EXTT14=
EXTT15=
EXTT16=
EXTT17=
EXTT18=
EXTT19=
EXTT20=
EXTT21=
EXTT22=
EXTT23=
EXTT24=
EXTT25=
EXTT26=
PLAYORDER=
